# xmcd CD database file
#
# Track frame offsets:
#	150
#	11820
#	25407
#	35282
#	47960
#	64007
#	76232
#	89767
#	98617
#	115320
#	125842
#	139245
#	150920
#	162950
#	173467
#
# Disc length: 2458 seconds
#
# Revision: 1
# Processed by: cddbd v1.5.2PL0 Copyright (c) Steve Scherf et al.
# Submitted via: CDex 1.81
#
DISCID=be09980f
DTITLE=Various Artist - The Blues - Blue Tail Fly
DYEAR=1995
DGENRE=Blues
TTITLE0=Billy Holiday - I got it Bad
TTITLE1=Muddy Waters - Sad Letter Blues
TTITLE2=John Lee Hooker - Dusty Road
TTITLE3=Ray Charles - Rocking Chair Blues
TTITLE4=Memphis Slim - Four O'Clock Blues
TTITLE5=Jimmy Reed - Little Rain
TTITLE6=Bessie Smith - Kitchen Man
TTITLE7=Billy Holiday - Please don't talk about
TTITLE8=John Lee Hooker - Process
TTITLE9=Leadbelly - Blue Tail Fly
TTITLE10=Elmore Jaroes - Dust my Broom
TTITLE11=Billy Holiday - Nice Work if you can get it
TTITLE12=John Lee Hooker - Whiskey and Women
TTITLE13=Muddy Waters - Diamonds at your Feet
TTITLE14=BB King - How Blue can you get
EXTD=YEAR: 1995
EXTT0=
EXTT1=
EXTT2=
EXTT3=
EXTT4=
EXTT5=
EXTT6=
EXTT7=
EXTT8=
EXTT9=
EXTT10=
EXTT11=
EXTT12=
EXTT13=
EXTT14=
PLAYORDER=
